<svg width="43" height="58" viewBox="0 0 43 58" fill="none" xmlns="http://www.w3.org/2000/svg">
<path d="M21.5 36.6316C26.5986 36.6316 30.6836 32.5411 30.6836 27.4737L30.7143 9.1579C30.7143 4.09053 26.5986 0 21.5 0C16.4014 0 12.2857 4.09053 12.2857 9.1579V27.4737C12.2857 32.5411 16.4014 36.6316 21.5 36.6316ZM37.7786 27.4737C37.7786 36.6316 29.9771 43.0421 21.5 43.0421C13.0229 43.0421 5.22143 36.6316 5.22143 27.4737H0C0 37.9137 8.35429 46.4916 18.4286 47.9874V58H24.5714V47.9874C34.6457 46.5221 43 37.9137 43 27.4737H37.7786Z" fill="black"/>
</svg>
